<svg version="1.1" id="Layer_1" xmlns="http://www.w3.org/2000/svg" xmlns:xlink="http://www.w3.org/1999/xlink" x="0px" y="0px"
	 width="100%" viewBox="0 0 400 400" enable-background="new 0 0 400 400" xml:space="preserve">
<path fill="#181A21" opacity="1.000000" stroke="none" 
	d="
M242.000000,401.000000 
	C161.333328,401.000000 81.166664,401.000000 1.000000,401.000000 
	C1.000000,267.666656 1.000000,134.333328 1.000000,1.000000 
	C134.333328,1.000000 267.666656,1.000000 401.000000,1.000000 
	C401.000000,134.333328 401.000000,267.666656 401.000000,401.000000 
	C348.166656,401.000000 295.333344,401.000000 242.000000,401.000000 
M166.776276,320.829956 
	C166.583359,320.650116 166.390457,320.470306 166.542465,319.699432 
	C169.314713,315.083954 174.592255,310.864380 172.627457,305.074127 
	C170.400146,298.510254 171.290878,292.345642 171.837891,285.895355 
	C172.249557,281.041046 173.091843,275.929535 168.917755,270.459412 
	C168.742569,278.268066 164.020203,281.914917 159.223511,285.640808 
	C150.768860,292.208008 145.159714,300.163269 147.815460,311.714172 
	C137.136169,308.112640 134.364563,299.334595 141.559341,290.883057 
	C147.480103,283.928101 149.278793,275.536316 152.028137,266.554382 
	C146.563690,269.054657 144.443909,273.211060 141.933517,277.385529 
	C139.271500,281.812164 136.178085,286.869934 131.927917,289.249359 
	C124.953773,293.153839 117.001274,295.477905 109.260559,297.798767 
	C101.586472,300.099701 95.153641,303.491302 91.451614,311.027954 
	C89.802002,314.386230 90.208992,316.650940 93.100510,319.215546 
	C113.669373,337.458984 137.041183,350.348907 163.902039,356.561005 
	C175.989456,359.356476 188.220871,361.288147 201.567978,360.913116 
	C191.846848,353.922607 188.544220,344.945251 189.925888,334.333923 
	C191.061066,325.615997 192.777695,316.967529 194.426422,308.324463 
	C196.172226,299.172729 193.090164,291.593658 187.228027,283.977539 
	C187.228027,287.270447 187.039276,289.764404 187.262787,292.220825 
	C187.986404,300.173523 185.934235,307.279907 180.007858,312.625122 
	C176.231903,316.030792 171.600906,318.488495 166.776276,320.829956 
M258.245483,311.208984 
	C258.117218,311.099884 257.988983,310.990753 257.955017,310.079285 
	C260.230377,301.059357 258.241425,294.813110 250.266571,290.803497 
	C243.531067,287.416962 238.593933,282.404205 233.541153,277.155975 
	C231.618393,275.158844 228.430969,274.379242 226.265427,272.948395 
	C226.148376,272.769409 226.031326,272.590424 225.914261,272.411438 
	C225.936676,272.608185 225.959076,272.804962 226.098892,273.719757 
	C227.364304,277.418365 229.254440,281.037598 229.736908,284.835663 
	C230.339066,289.575836 229.874390,294.466522 229.705536,299.286469 
	C229.378403,308.623047 232.670502,315.838867 241.413040,320.044800 
	C241.873764,320.266479 242.115875,320.942566 242.586411,321.578217 
	C230.362213,322.719788 222.786240,317.715698 221.716766,308.549805 
	C221.371811,305.593475 220.430328,302.708527 219.793808,299.783966 
	C218.569046,294.156769 215.028625,290.346741 210.326202,287.173859 
	C211.012909,292.076080 211.953568,296.638245 212.238373,301.240967 
	C212.995468,313.476654 208.979950,324.465179 202.824371,334.807007 
	C199.542648,340.320496 198.084274,346.143677 199.856705,352.486450 
	C201.535492,358.494171 204.859390,361.232880 210.061050,360.844482 
	C238.636612,358.710632 265.234253,350.532959 289.100861,334.418640 
	C296.049500,329.727081 302.540558,324.357758 309.241364,319.299133 
	C300.141449,318.623230 294.183777,314.376953 290.248779,307.209717 
	C287.704803,302.576080 285.492798,297.736115 283.452148,292.854767 
	C277.450287,278.498077 265.157013,270.107147 249.798355,271.421387 
	C253.062836,274.967163 255.387634,278.038940 258.251038,280.478516 
	C262.931488,284.466217 265.789856,289.465851 264.610535,295.334717 
	C263.489777,300.912231 260.688873,306.152161 258.245483,311.208984 
M309.870636,257.824738 
	C310.004913,257.972931 310.139221,258.121155 310.000641,258.917786 
	C305.096344,264.007019 297.335236,264.387115 291.392792,260.988159 
	C286.131805,257.978943 280.265656,255.961182 274.523834,253.904480 
	C273.036896,253.371872 271.014404,254.334473 269.237885,254.610260 
	C276.138184,258.055237 282.914581,260.642639 286.430054,267.588684 
	C289.119171,272.901917 291.846741,278.258667 293.816315,283.856689 
	C296.179718,290.574249 297.412537,297.688538 299.758179,304.413635 
	C302.947906,313.558716 313.182251,315.539825 319.458557,308.528320 
	C337.559875,288.306732 350.057343,265.107208 356.446808,238.688049 
	C359.246399,227.112534 360.853973,215.391281 360.944122,202.472168 
	C354.926758,208.954926 348.495392,212.893127 340.645294,212.641373 
	C335.248474,212.468323 329.899445,210.746475 324.533173,209.695740 
	C317.856445,208.388428 311.219147,206.827438 304.499451,205.806488 
	C298.106995,204.835236 292.867706,207.888840 288.197571,211.835495 
	C287.224487,212.657822 286.996429,214.361710 286.425049,215.659348 
	C287.710114,216.157822 288.966797,216.981155 290.285370,217.096527 
	C295.081421,217.516220 299.935760,217.411331 304.699036,218.033249 
	C313.610382,219.196793 321.935791,227.196640 322.998993,235.821503 
	C320.393127,234.384033 318.194000,233.030991 315.873566,231.934708 
	C313.983276,231.041641 311.975891,229.934158 309.971832,229.826553 
	C302.410919,229.420624 294.830109,229.386948 287.256897,229.208221 
	C281.437408,229.070923 275.663177,229.040558 272.394318,234.266403 
	C275.988159,236.315659 279.738586,237.740036 282.531677,240.235825 
	C285.700714,243.067581 287.906067,246.950455 290.720703,250.212143 
	C295.656281,255.931686 301.406616,259.763184 309.870636,257.824738 
M253.358994,227.758301 
	C256.575592,218.128464 257.900055,208.225052 255.890396,198.261627 
	C250.519119,171.631927 240.941208,152.514175 212.071121,146.255173 
	C182.456436,139.834778 153.601166,158.861801 146.588150,181.420502 
	C138.746002,206.646362 140.782455,229.099747 161.115906,247.631134 
	C165.539948,251.663101 170.909378,255.324768 176.499939,257.271271 
	C188.233292,261.356567 200.607864,262.749786 212.883453,259.863190 
	C230.971695,255.609756 245.986588,247.034058 253.358994,227.758301 
M65.894791,115.401329 
	C49.967213,140.663300 41.754425,168.170853 41.062180,197.958237 
	C46.392136,195.122375 50.936581,191.815750 56.018517,190.206085 
	C63.903145,187.708694 71.659492,190.715790 78.703644,193.858765 
	C92.789986,200.143875 105.066498,196.793030 118.078911,187.736679 
	C114.396957,187.214722 111.753563,186.521835 109.110909,186.524612 
	C100.958366,186.533157 93.110260,185.970123 87.124321,179.339264 
	C84.074028,175.960342 82.445183,172.203140 82.341194,166.590591 
	C85.062859,168.485367 86.916000,169.544006 88.492683,170.919556 
	C92.190392,174.145523 95.854034,175.020523 100.827972,173.272232 
	C104.349083,172.034607 108.658562,172.365768 112.501747,172.869370 
	C119.015854,173.722977 125.264732,173.919769 131.511383,170.344070 
	C121.943909,166.678986 113.783447,161.900391 109.899323,152.064560 
	C109.447769,150.921097 108.170441,150.072754 107.198524,149.171051 
	C102.712715,145.009232 97.279205,143.630875 90.873657,143.525208 
	C93.271095,141.183350 95.780518,138.980789 98.641273,138.335327 
	C105.001015,136.900406 109.908585,140.082733 113.855415,144.816559 
	C118.091850,149.897766 123.506050,151.692780 129.877335,150.651810 
	C131.031876,150.463165 132.641312,149.480576 132.914993,148.537750 
	C133.162750,147.684250 132.133652,146.025421 131.208618,145.353790 
	C129.073410,143.803528 126.695595,142.569305 124.353073,141.325775 
	C112.699760,135.139664 104.294579,126.796043 103.765755,112.518135 
	C103.345360,101.167778 100.427498,91.243752 85.628975,89.175896 
	C79.474159,97.310722 72.867233,106.043091 65.894791,115.401329 
M275.761230,166.394653 
	C274.705170,169.045654 273.649078,171.696671 272.779266,173.880157 
	C277.398102,172.943985 281.588593,171.213318 285.677338,171.427261 
	C299.203308,172.135040 311.549164,170.619934 319.609283,157.742569 
	C320.796112,162.798080 319.782135,167.704315 314.943573,171.468384 
	C308.582977,176.416489 301.497070,180.458038 294.575348,184.645233 
	C292.091614,186.147736 289.166626,186.930801 289.279694,191.085938 
	C296.465912,186.699020 303.992157,185.745560 311.367523,187.841217 
	C318.611694,189.899567 325.849335,192.654297 332.386139,196.348572 
	C339.621490,200.437576 346.802338,201.930176 354.851166,200.535751 
	C359.614594,199.710510 361.295654,197.454132 360.934387,192.384216 
	C358.482391,157.973358 346.881653,127.180244 325.225281,100.270737 
	C321.966248,96.221153 318.344086,92.463799 314.351288,87.964302 
	C313.371796,106.551781 312.290436,108.660271 298.291565,118.512894 
	C294.077179,121.479057 289.306091,123.708328 285.319489,126.930252 
	C280.459595,130.857986 275.745728,135.133148 271.759796,139.917160 
	C269.089966,143.121582 267.905731,147.485550 270.038330,152.287170 
	C274.361298,148.313324 277.921814,143.841888 282.522491,141.144699 
	C287.222656,138.389191 292.830261,136.699463 298.249878,135.789688 
	C303.601379,134.891312 308.855377,136.463333 313.817841,141.708084 
	C310.480743,142.066711 308.416779,142.339111 306.344208,142.502060 
	C299.325195,143.053894 292.847778,144.276367 289.522461,151.821854 
	C288.583282,153.952988 286.125977,155.407990 284.388550,157.196030 
	C281.624390,160.040710 278.880035,162.904633 275.761230,166.394653 
M168.915756,96.834373 
	C167.208694,92.690849 165.460220,88.563499 163.829803,84.390038 
	C163.506714,83.563026 163.636810,82.558960 163.557938,81.636543 
	C164.593140,81.657143 165.809052,81.327530 166.634949,81.753731 
	C173.262573,85.173958 178.147949,90.122490 180.038467,97.601631 
	C180.974594,101.305122 181.896439,105.022362 183.081161,108.649628 
	C184.015045,111.508873 185.898666,113.322281 189.620743,112.656189 
	C188.809143,111.021416 188.217407,109.649483 187.475494,108.364220 
	C182.442871,99.645599 182.845383,90.884171 187.360550,82.165306 
	C189.271194,78.475822 191.175552,74.722260 193.598251,71.370407 
	C200.306091,62.090023 203.845795,52.465225 197.770401,41.007851 
	C156.078018,42.350975 119.778183,57.349213 89.246017,86.542763 
	C89.861565,87.181770 90.064362,87.587692 90.325806,87.629845 
	C91.453552,87.811668 92.627663,88.110252 93.732605,87.965950 
	C103.364067,86.708038 109.373810,91.500954 113.976707,99.378204 
	C118.421257,106.984436 122.851547,114.699829 128.261139,121.604973 
	C131.720200,126.020325 136.771698,129.306534 141.494873,132.534805 
	C142.770218,133.406494 145.451340,132.221436 147.487183,131.980453 
	C147.116623,130.037476 147.247925,127.777786 146.265472,126.220955 
	C144.507553,123.435295 142.042786,121.102386 139.937561,118.527832 
	C135.278488,112.830101 134.019135,106.340103 135.952667,99.326744 
	C136.328033,97.965240 137.838196,96.916595 138.824921,95.723640 
	C139.751541,96.934792 141.460678,98.137070 141.474533,99.358582 
	C141.550125,106.017982 145.719208,109.166634 151.113312,111.326012 
	C156.485641,113.476654 159.567688,117.571281 161.444473,122.807541 
	C162.060944,124.527481 162.475220,126.358398 163.343704,127.939903 
	C164.462921,129.978012 165.135178,132.866302 168.789261,131.296326 
	C172.077682,129.883469 171.929886,127.727814 171.300598,124.787209 
	C170.299271,120.108185 169.540237,115.345284 169.140121,110.579124 
	C168.780838,106.299446 169.043030,101.967606 168.915756,96.834373 
M125.713554,267.206635 
	C129.264877,262.096832 132.816208,256.987030 136.367523,251.877213 
	C135.796875,251.375290 135.226227,250.873367 134.655579,250.371445 
	C131.421478,253.065750 128.166931,255.736023 124.959976,258.462280 
	C122.561882,260.500916 120.469124,263.017303 117.815010,264.613770 
	C110.086411,269.262573 98.027748,266.773376 94.545624,260.000854 
	C96.728600,260.000854 98.851105,260.052856 100.970184,259.989655 
	C104.976181,259.870148 108.113884,258.548615 110.682213,255.024658 
	C114.030228,250.430969 117.904579,246.140610 122.025040,242.215897 
	C125.257317,239.137146 128.724564,236.472595 129.513184,232.162537 
	C124.102966,232.429794 118.908134,232.980988 113.725601,232.882767 
	C101.973190,232.660034 90.332680,232.526657 80.561775,242.788239 
	C79.959923,237.166306 81.118408,233.428391 83.605560,229.981262 
	C88.594643,223.066513 95.872192,221.603134 103.770233,221.073181 
	C110.973045,220.589874 116.737213,217.071442 121.765213,211.193634 
	C119.541977,211.193634 118.036674,211.032990 116.583191,211.238632 
	C115.118851,211.445801 113.646118,211.874695 112.279686,212.450134 
	C95.402588,219.557449 93.038696,223.514862 72.235123,206.789169 
	C65.505318,201.378540 57.976578,199.291016 49.433865,199.939697 
	C41.629444,200.532318 40.654762,201.373901 41.148705,209.249207 
	C43.341526,244.211105 55.324486,275.388885 77.440041,302.601807 
	C80.194702,305.991364 83.232887,309.150513 86.406921,312.716644 
	C86.866676,311.534637 87.054085,311.243164 87.082268,310.936981 
	C87.127426,310.446350 87.113922,309.939362 87.044426,309.450745 
	C85.587585,299.209961 90.612015,292.399170 98.577225,286.867188 
	C107.556572,280.630890 116.315414,274.077057 125.713554,267.206635 
M257.359558,129.844421 
	C263.969513,116.134323 274.307037,107.795425 289.861816,105.934761 
	C299.460846,104.786522 305.421844,98.445480 309.065796,89.671806 
	C310.561768,86.069908 309.971252,83.699028 306.915619,81.055397 
	C289.684143,66.147354 270.406586,54.931435 248.603119,48.261482 
	C233.336197,43.591137 217.717987,40.985794 201.153290,41.054173 
	C212.887985,51.482895 215.257690,59.311031 211.621887,73.198196 
	C209.688782,80.581848 207.925781,88.022064 206.434921,95.506256 
	C204.747345,103.977974 204.440735,112.239159 213.861710,118.854263 
	C211.205948,110.327614 213.043686,103.384430 216.380569,96.662178 
	C220.848831,87.660728 228.157394,81.514671 236.644089,76.629166 
	C237.666306,76.040703 239.358688,76.616356 240.740448,76.652466 
	C240.507706,77.875656 240.486237,79.195068 239.984894,80.295944 
	C239.445389,81.480675 238.312500,82.383125 237.686935,83.542763 
	C234.557999,89.343025 230.003006,94.899834 228.822815,101.090073 
	C227.403275,108.535667 228.873489,116.533417 229.134964,124.290680 
	C229.140869,124.465660 229.653702,124.623558 230.417435,125.081924 
	C242.605957,115.185051 253.612289,104.299973 257.542542,87.792740 
	C264.547058,94.969284 266.135315,104.423897 261.907623,112.117920 
	C260.311646,115.022461 258.310425,117.705360 256.477203,120.478226 
	C253.662384,124.735794 252.124313,129.246857 253.598495,135.708755 
	C255.131393,133.332596 256.055573,131.899979 257.359558,129.844421 
z"/>
<path fill="#F56145" opacity="1.000000" stroke="none" 
	d="
M253.208344,228.123627 
	C245.986588,247.034058 230.971695,255.609756 212.883453,259.863190 
	C200.607864,262.749786 188.233292,261.356567 176.499939,257.271271 
	C170.909378,255.324768 165.539948,251.663101 161.115906,247.631134 
	C140.782455,229.099747 138.746002,206.646362 146.588150,181.420502 
	C153.601166,158.861801 182.456436,139.834778 212.071121,146.255173 
	C240.941208,152.514175 250.519119,171.631927 255.890396,198.261627 
	C257.900055,208.225052 256.575592,218.128464 253.208344,228.123627 
z"/>
<path fill="#F46045" opacity="1.000000" stroke="none" 
	d="
M309.481415,257.367981 
	C301.406616,259.763184 295.656281,255.931686 290.720703,250.212143 
	C287.906067,246.950455 285.700714,243.067581 282.531677,240.235825 
	C279.738586,237.740036 275.988159,236.315659 272.394318,234.266403 
	C275.663177,229.040558 281.437408,229.070923 287.256897,229.208221 
	C294.830109,229.386948 302.410919,229.420624 309.971832,229.826553 
	C311.975891,229.934158 313.983276,231.041641 315.873566,231.934708 
	C318.194000,233.030991 320.393127,234.384033 322.998993,235.821503 
	C321.935791,227.196640 313.610382,219.196793 304.699036,218.033249 
	C299.935760,217.411331 295.081421,217.516220 290.285370,217.096527 
	C288.966797,216.981155 287.710114,216.157822 286.425049,215.659348 
	C286.996429,214.361710 287.224487,212.657822 288.197571,211.835495 
	C292.867706,207.888840 298.106995,204.835236 304.499451,205.806488 
	C311.219147,206.827438 317.856445,208.388428 324.533173,209.695740 
	C329.899445,210.746475 335.248474,212.468323 340.645294,212.641373 
	C348.495392,212.893127 354.926758,208.954926 360.944122,202.472168 
	C360.853973,215.391281 359.246399,227.112534 356.446808,238.688049 
	C350.057343,265.107208 337.559875,288.306732 319.458557,308.528320 
	C313.182251,315.539825 302.947906,313.558716 299.758179,304.413635 
	C297.412537,297.688538 296.179718,290.574249 293.816315,283.856689 
	C291.846741,278.258667 289.119171,272.901917 286.430054,267.588684 
	C282.914581,260.642639 276.138184,258.055237 269.237885,254.610260 
	C271.014404,254.334473 273.036896,253.371872 274.523834,253.904480 
	C280.265656,255.961182 286.131805,257.978943 291.392792,260.988159 
	C297.335236,264.387115 305.096344,264.007019 310.341125,258.443970 
	C310.281555,257.769440 309.881470,257.568726 309.481415,257.367981 
z"/>
<path fill="#F36045" opacity="1.000000" stroke="none" 
	d="
M66.077545,115.088394 
	C72.867233,106.043091 79.474159,97.310722 85.628975,89.175896 
	C100.427498,91.243752 103.345360,101.167778 103.765755,112.518135 
	C104.294579,126.796043 112.699760,135.139664 124.353073,141.325775 
	C126.695595,142.569305 129.073410,143.803528 131.208618,145.353790 
	C132.133652,146.025421 133.162750,147.684250 132.914993,148.537750 
	C132.641312,149.480576 131.031876,150.463165 129.877335,150.651810 
	C123.506050,151.692780 118.091850,149.897766 113.855415,144.816559 
	C109.908585,140.082733 105.001015,136.900406 98.641273,138.335327 
	C95.780518,138.980789 93.271095,141.183350 90.873657,143.525208 
	C97.279205,143.630875 102.712715,145.009232 107.198524,149.171051 
	C108.170441,150.072754 109.447769,150.921097 109.899323,152.064560 
	C113.783447,161.900391 121.943909,166.678986 131.511383,170.344070 
	C125.264732,173.919769 119.015854,173.722977 112.501747,172.869370 
	C108.658562,172.365768 104.349083,172.034607 100.827972,173.272232 
	C95.854034,175.020523 92.190392,174.145523 88.492683,170.919556 
	C86.916000,169.544006 85.062859,168.485367 82.341194,166.590591 
	C82.445183,172.203140 84.074028,175.960342 87.124321,179.339264 
	C93.110260,185.970123 100.958366,186.533157 109.110909,186.524612 
	C111.753563,186.521835 114.396957,187.214722 118.078911,187.736679 
	C105.066498,196.793030 92.789986,200.143875 78.703644,193.858765 
	C71.659492,190.715790 63.903145,187.708694 56.018517,190.206085 
	C50.936581,191.815750 46.392136,195.122375 41.062180,197.958237 
	C41.754425,168.170853 49.967213,140.663300 66.077545,115.088394 
z"/>
<path fill="#F46045" opacity="1.000000" stroke="none" 
	d="
M225.819916,273.044769 
	C228.430969,274.379242 231.618393,275.158844 233.541153,277.155975 
	C238.593933,282.404205 243.531067,287.416962 250.266571,290.803497 
	C258.241425,294.813110 260.230377,301.059357 257.654724,310.639008 
	C257.286407,311.712952 257.218414,312.227142 257.041687,313.563538 
	C257.926239,312.434540 258.276489,311.987518 258.626740,311.540497 
	C260.688873,306.152161 263.489777,300.912231 264.610535,295.334717 
	C265.789856,289.465851 262.931488,284.466217 258.251038,280.478516 
	C255.387634,278.038940 253.062836,274.967163 249.798355,271.421387 
	C265.157013,270.107147 277.450287,278.498077 283.452148,292.854767 
	C285.492798,297.736115 287.704803,302.576080 290.248779,307.209717 
	C294.183777,314.376953 300.141449,318.623230 309.241364,319.299133 
	C302.540558,324.357758 296.049500,329.727081 289.100861,334.418640 
	C265.234253,350.532959 238.636612,358.710632 210.061050,360.844482 
	C204.859390,361.232880 201.535492,358.494171 199.856705,352.486450 
	C198.084274,346.143677 199.542648,340.320496 202.824371,334.807007 
	C208.979950,324.465179 212.995468,313.476654 212.238373,301.240967 
	C211.953568,296.638245 211.012909,292.076080 210.326202,287.173859 
	C215.028625,290.346741 218.569046,294.156769 219.793808,299.783966 
	C220.430328,302.708527 221.371811,305.593475 221.716766,308.549805 
	C222.786240,317.715698 230.362213,322.719788 242.586411,321.578217 
	C242.115875,320.942566 241.873764,320.266479 241.413040,320.044800 
	C232.670502,315.838867 229.378403,308.623047 229.705536,299.286469 
	C229.874390,294.466522 230.339066,289.575836 229.736908,284.835663 
	C229.254440,281.037598 227.364304,277.418365 226.000641,273.374664 
	C225.902374,273.029572 225.819916,273.044769 225.819916,273.044769 
z"/>
<path fill="#F36045" opacity="1.000000" stroke="none" 
	d="
M275.944275,166.077545 
	C278.880035,162.904633 281.624390,160.040710 284.388550,157.196030 
	C286.125977,155.407990 288.583282,153.952988 289.522461,151.821854 
	C292.847778,144.276367 299.325195,143.053894 306.344208,142.502060 
	C308.416779,142.339111 310.480743,142.066711 313.817841,141.708084 
	C308.855377,136.463333 303.601379,134.891312 298.249878,135.789688 
	C292.830261,136.699463 287.222656,138.389191 282.522491,141.144699 
	C277.921814,143.841888 274.361298,148.313324 270.038330,152.287170 
	C267.905731,147.485550 269.089966,143.121582 271.759796,139.917160 
	C275.745728,135.133148 280.459595,130.857986 285.319489,126.930252 
	C289.306091,123.708328 294.077179,121.479057 298.291565,118.512894 
	C312.290436,108.660271 313.371796,106.551781 314.351288,87.964302 
	C318.344086,92.463799 321.966248,96.221153 325.225281,100.270737 
	C346.881653,127.180244 358.482391,157.973358 360.934387,192.384216 
	C361.295654,197.454132 359.614594,199.710510 354.851166,200.535751 
	C346.802338,201.930176 339.621490,200.437576 332.386139,196.348572 
	C325.849335,192.654297 318.611694,189.899567 311.367523,187.841217 
	C303.992157,185.745560 296.465912,186.699020 289.279694,191.085938 
	C289.166626,186.930801 292.091614,186.147736 294.575348,184.645233 
	C301.497070,180.458038 308.582977,176.416489 314.943573,171.468384 
	C319.782135,167.704315 320.796112,162.798080 319.609283,157.742569 
	C311.549164,170.619934 299.203308,172.135040 285.677338,171.427261 
	C281.588593,171.213318 277.398102,172.943985 272.779266,173.880157 
	C273.649078,171.696671 274.705170,169.045654 275.944275,166.077545 
z"/>
<path fill="#F36045" opacity="1.000000" stroke="none" 
	d="
M167.353302,321.371277 
	C171.600906,318.488495 176.231903,316.030792 180.007858,312.625122 
	C185.934235,307.279907 187.986404,300.173523 187.262787,292.220825 
	C187.039276,289.764404 187.228027,287.270447 187.228027,283.977539 
	C193.090164,291.593658 196.172226,299.172729 194.426422,308.324463 
	C192.777695,316.967529 191.061066,325.615997 189.925888,334.333923 
	C188.544220,344.945251 191.846848,353.922607 201.567978,360.913116 
	C188.220871,361.288147 175.989456,359.356476 163.902039,356.561005 
	C137.041183,350.348907 113.669373,337.458984 93.100510,319.215546 
	C90.208992,316.650940 89.802002,314.386230 91.451614,311.027954 
	C95.153641,303.491302 101.586472,300.099701 109.260559,297.798767 
	C117.001274,295.477905 124.953773,293.153839 131.927917,289.249359 
	C136.178085,286.869934 139.271500,281.812164 141.933517,277.385529 
	C144.443909,273.211060 146.563690,269.054657 152.028137,266.554382 
	C149.278793,275.536316 147.480103,283.928101 141.559341,290.883057 
	C134.364563,299.334595 137.136169,308.112640 147.815460,311.714172 
	C145.159714,300.163269 150.768860,292.208008 159.223511,285.640808 
	C164.020203,281.914917 168.742569,278.268066 168.917755,270.459412 
	C173.091843,275.929535 172.249557,281.041046 171.837891,285.895355 
	C171.290878,292.345642 170.400146,298.510254 172.627457,305.074127 
	C174.592255,310.864380 169.314713,315.083954 166.151855,320.186279 
	C165.663467,321.047485 165.565704,321.421844 165.467941,321.796173 
	C166.096390,321.654541 166.724854,321.512909 167.353302,321.371277 
z"/>
<path fill="#F46045" opacity="1.000000" stroke="none" 
	d="
M168.973419,97.246574 
	C169.043030,101.967606 168.780838,106.299446 169.140121,110.579124 
	C169.540237,115.345284 170.299271,120.108185 171.300598,124.787209 
	C171.929886,127.727814 172.077682,129.883469 168.789261,131.296326 
	C165.135178,132.866302 164.462921,129.978012 163.343704,127.939903 
	C162.475220,126.358398 162.060944,124.527481 161.444473,122.807541 
	C159.567688,117.571281 156.485641,113.476654 151.113312,111.326012 
	C145.719208,109.166634 141.550125,106.017982 141.474533,99.358582 
	C141.460678,98.137070 139.751541,96.934792 138.824921,95.723633 
	C137.838196,96.916595 136.328033,97.965240 135.952667,99.326744 
	C134.019135,106.340103 135.278488,112.830101 139.937561,118.527832 
	C142.042786,121.102386 144.507553,123.435295 146.265472,126.220955 
	C147.247925,127.777786 147.116623,130.037476 147.487183,131.980438 
	C145.451340,132.221436 142.770218,133.406494 141.494873,132.534805 
	C136.771698,129.306534 131.720200,126.020325 128.261139,121.604973 
	C122.851547,114.699829 118.421257,106.984436 113.976707,99.378204 
	C109.373810,91.500954 103.364067,86.708038 93.732605,87.965950 
	C92.627663,88.110252 91.453552,87.811668 90.325806,87.629845 
	C90.064362,87.587692 89.861565,87.181770 89.246017,86.542763 
	C119.778183,57.349213 156.078018,42.350975 197.770401,41.007851 
	C203.845795,52.465225 200.306091,62.090023 193.598251,71.370407 
	C191.175552,74.722260 189.271194,78.475822 187.360550,82.165306 
	C182.845383,90.884171 182.442871,99.645599 187.475494,108.364220 
	C188.217407,109.649483 188.809143,111.021416 189.620743,112.656189 
	C185.898666,113.322281 184.015045,111.508873 183.081161,108.649628 
	C181.896439,105.022362 180.974594,101.305122 180.038467,97.601631 
	C178.147949,90.122490 173.262573,85.173958 166.634949,81.753731 
	C165.809052,81.327530 164.593140,81.657143 163.557938,81.636543 
	C163.636810,82.558960 163.506714,83.563026 163.829803,84.390038 
	C165.460220,88.563499 167.208694,92.690849 168.973419,97.246574 
z"/>
<path fill="#F36045" opacity="1.000000" stroke="none" 
	d="
M125.441856,267.433990 
	C116.315414,274.077057 107.556572,280.630890 98.577225,286.867188 
	C90.612015,292.399170 85.587585,299.209961 87.044426,309.450745 
	C87.113922,309.939362 87.127426,310.446350 87.082268,310.936981 
	C87.054085,311.243164 86.866676,311.534637 86.406921,312.716644 
	C83.232887,309.150513 80.194702,305.991364 77.440041,302.601807 
	C55.324486,275.388885 43.341526,244.211105 41.148705,209.249207 
	C40.654762,201.373901 41.629444,200.532318 49.433865,199.939697 
	C57.976578,199.291016 65.505318,201.378540 72.235123,206.789169 
	C93.038696,223.514862 95.402588,219.557449 112.279686,212.450134 
	C113.646118,211.874695 115.118851,211.445801 116.583191,211.238632 
	C118.036674,211.032990 119.541977,211.193634 121.765213,211.193634 
	C116.737213,217.071442 110.973045,220.589874 103.770233,221.073181 
	C95.872192,221.603134 88.594643,223.066513 83.605560,229.981262 
	C81.118408,233.428391 79.959923,237.166306 80.561775,242.788239 
	C90.332680,232.526657 101.973190,232.660034 113.725601,232.882767 
	C118.908134,232.980988 124.102966,232.429794 129.513184,232.162537 
	C128.724564,236.472595 125.257317,239.137146 122.025040,242.215897 
	C117.904579,246.140610 114.030228,250.430969 110.682213,255.024658 
	C108.113884,258.548615 104.976181,259.870148 100.970184,259.989655 
	C98.851105,260.052856 96.728600,260.000854 94.545624,260.000854 
	C98.027748,266.773376 110.086411,269.262573 117.815010,264.613770 
	C120.469124,263.017303 122.561882,260.500916 124.959976,258.462280 
	C128.166931,255.736023 131.421478,253.065750 134.655579,250.371445 
	C135.226227,250.873367 135.796875,251.375290 136.367523,251.877213 
	C132.816208,256.987030 129.264877,262.096832 125.441856,267.433990 
z"/>
<path fill="#F36044" opacity="1.000000" stroke="none" 
	d="
M257.169678,130.155899 
	C256.055573,131.899979 255.131393,133.332596 253.598495,135.708755 
	C252.124313,129.246857 253.662384,124.735794 256.477203,120.478226 
	C258.310425,117.705360 260.311646,115.022461 261.907623,112.117920 
	C266.135315,104.423897 264.547058,94.969284 257.542542,87.792740 
	C253.612289,104.299973 242.605957,115.185051 230.417435,125.081924 
	C229.653702,124.623558 229.140869,124.465660 229.134964,124.290680 
	C228.873489,116.533417 227.403275,108.535667 228.822815,101.090073 
	C230.003006,94.899834 234.557999,89.343025 237.686935,83.542763 
	C238.312500,82.383125 239.445389,81.480675 239.984894,80.295944 
	C240.486237,79.195068 240.507706,77.875656 240.740448,76.652466 
	C239.358688,76.616356 237.666306,76.040703 236.644089,76.629166 
	C228.157394,81.514671 220.848831,87.660728 216.380569,96.662178 
	C213.043686,103.384430 211.205948,110.327614 213.861710,118.854263 
	C204.440735,112.239159 204.747345,103.977974 206.434921,95.506256 
	C207.925781,88.022064 209.688782,80.581848 211.621887,73.198196 
	C215.257690,59.311031 212.887985,51.482895 201.153290,41.054173 
	C217.717987,40.985794 233.336197,43.591137 248.603119,48.261482 
	C270.406586,54.931435 289.684143,66.147354 306.915619,81.055397 
	C309.971252,83.699028 310.561768,86.069908 309.065796,89.671806 
	C305.421844,98.445480 299.460846,104.786522 289.861816,105.934761 
	C274.307037,107.795425 263.969513,116.134323 257.169678,130.155899 
z"/>
<path fill="#F46045" opacity="1.000000" stroke="none" 
	d="
M225.941925,273.015625 
	C225.959076,272.804962 225.936676,272.608185 225.914261,272.411438 
	C226.031326,272.590424 226.148376,272.769409 226.042664,272.996582 
	C225.819916,273.044769 225.902374,273.029572 225.941925,273.015625 
z"/>
<path fill="#181A21" opacity="1.000000" stroke="none" 
	d="
M309.676025,257.596375 
	C309.881470,257.568726 310.281555,257.769440 310.477600,258.119781 
	C310.139221,258.121155 310.004913,257.972931 309.676025,257.596375 
z"/>
<path fill="#181A21" opacity="1.000000" stroke="none" 
	d="
M258.436096,311.374756 
	C258.276489,311.987518 257.926239,312.434540 257.041687,313.563538 
	C257.218414,312.227142 257.286407,311.712952 257.607544,311.040161 
	C257.988983,310.990753 258.117218,311.099884 258.436096,311.374756 
z"/>
<path fill="#181A21" opacity="1.000000" stroke="none" 
	d="
M167.064789,321.100616 
	C166.724854,321.512909 166.096390,321.654541 165.467941,321.796173 
	C165.565704,321.421844 165.663467,321.047485 165.979401,320.481812 
	C166.390457,320.470306 166.583359,320.650116 167.064789,321.100616 
z"/>
</svg>