<svg version="1.1" id="Layer_1" xmlns="http://www.w3.org/2000/svg" xmlns:xlink="http://www.w3.org/1999/xlink" x="0px" y="0px"
	 width="100%" viewBox="0 0 655 170" enable-background="new 0 0 655 170" xml:space="preserve">
<path fill="#181B21" opacity="1.000000" stroke="none" 
	d="
M430.000000,171.000000 
	C286.709930,171.000000 143.919876,171.000000 1.064911,171.000000 
	C1.064911,114.393837 1.064911,57.787582 1.064911,1.090664 
	C219.333313,1.090664 437.666656,1.090664 655.965698,1.090664 
	C655.965698,57.746727 655.965698,114.373375 655.965698,171.000000 
	C580.787659,171.000000 505.643829,171.000000 430.000000,171.000000 
M203.605072,86.339737 
	C203.417297,86.932266 203.229523,87.524796 202.961441,88.714714 
	C202.677887,89.230774 202.394348,89.746834 201.310287,90.113594 
	C197.905273,89.410400 194.528030,88.450745 191.087219,88.078384 
	C187.846359,87.727654 185.105148,88.972137 183.308258,92.173447 
	C196.814148,95.193855 196.814148,95.193855 197.580673,99.134323 
	C190.993103,99.307594 184.229401,96.433601 177.132431,99.672234 
	C182.529388,104.006233 187.288300,107.827866 192.027924,111.634003 
	C186.889587,115.159637 182.645401,107.621567 175.872406,109.042442 
	C183.247040,111.645706 185.337692,116.978630 186.972153,122.629364 
	C187.617401,124.860229 188.062286,127.160576 188.859085,129.333694 
	C190.583618,134.036972 194.970779,135.100693 197.687302,131.097641 
	C202.218857,124.419960 206.117279,117.312630 211.007706,110.637245 
	C216.189499,111.442680 221.394547,113.034286 226.548004,112.881882 
	C235.869293,112.606216 243.360321,106.189178 245.550781,97.907860 
	C247.584076,90.220688 244.196594,82.764709 236.016693,77.239609 
	C230.653305,73.616928 225.011261,70.374969 219.881516,66.455360 
	C218.060486,65.063927 216.042603,61.816086 216.512619,60.056129 
	C217.152008,57.661900 219.726761,55.027630 222.116516,54.008286 
	C227.882233,51.548927 232.834854,53.715813 238.146133,60.247547 
	C238.493347,56.915627 238.795685,54.014347 239.121140,50.891350 
	C234.082214,50.550076 229.463547,50.238823 224.845123,49.924099 
	C218.024475,49.459305 212.475220,51.747425 208.243057,56.701199 
	C205.100983,49.979713 201.086945,43.902981 194.734131,37.697212 
	C196.166183,44.454395 193.047607,47.613960 189.223358,50.321377 
	C186.508820,52.243149 183.376404,53.684361 180.996475,55.937820 
	C178.672882,58.137920 177.067642,61.096676 175.147049,63.722385 
	C175.536270,63.996651 175.925476,64.270920 176.314682,64.545181 
	C188.702774,56.775925 189.170074,56.667038 194.056335,60.762779 
	C185.103729,60.852112 182.266632,67.917885 177.736923,73.023720 
	C177.992950,73.510033 178.248993,73.996346 178.505020,74.482658 
	C184.645966,73.321281 190.786911,72.159904 196.927856,70.998528 
	C197.159378,71.233894 197.390884,71.469261 197.622406,71.704628 
	C193.525406,74.701027 189.428421,77.697418 185.186539,80.799782 
	C192.374741,79.677933 199.202133,79.384827 203.605072,86.339737 
M102.787552,94.953201 
	C106.208588,93.950615 109.629623,92.948029 113.050659,91.945450 
	C112.835045,91.268883 112.619438,90.592323 112.403831,89.915764 
	C108.910301,91.093697 105.416779,92.271622 101.179443,93.263649 
	C98.297966,91.716057 95.228271,90.434448 92.578552,88.559357 
	C88.467957,85.650467 84.264366,84.749672 79.071129,86.578438 
	C79.525406,104.378151 85.603287,119.692299 98.929321,133.934799 
	C97.814796,126.403313 101.688538,123.666229 106.150139,120.933289 
	C111.201279,117.839233 116.476151,114.673424 118.199783,108.106110 
	C113.339676,111.482536 109.104080,117.312706 101.879745,111.389008 
	C110.032928,110.805275 111.297699,103.294205 116.637566,100.369102 
	C116.345726,99.874321 116.053886,99.379539 115.762047,98.884758 
	C109.224052,99.728249 102.686066,100.571747 95.943245,101.441666 
	C96.010040,98.314705 98.708725,96.381584 102.787552,94.953201 
M148.493683,19.138683 
	C152.479477,22.495064 152.622269,26.803894 151.598312,31.440134 
	C150.705124,35.484383 149.589890,39.515747 149.174271,43.613811 
	C148.971710,45.611172 150.141159,47.747677 150.689560,49.821198 
	C152.470947,40.797070 156.800354,34.909836 165.106552,33.013832 
	C158.885712,39.205257 157.791733,45.764626 160.731461,53.681194 
	C164.499710,48.733917 168.267960,43.786640 171.927277,38.982368 
	C178.464310,45.727623 168.726974,50.832027 169.149002,57.836174 
	C170.026917,56.898376 170.605164,56.506622 170.870773,55.962318 
	C173.777267,50.006100 178.335861,46.722034 184.997208,45.395050 
	C187.795853,44.837540 190.287003,41.838020 192.447281,39.511597 
	C193.111023,38.796780 192.792068,35.971867 191.945374,35.231808 
	C179.388672,24.256540 165.011978,17.840059 147.080124,18.529829 
	C136.827438,17.484880 127.341530,20.251459 118.191887,24.480553 
	C111.439278,27.601704 105.360588,31.701170 99.209213,37.944130 
	C105.617813,37.087688 108.522980,39.973774 110.815170,43.978489 
	C112.382957,46.717598 113.999565,49.457554 115.889381,51.975723 
	C117.918793,54.679901 120.051323,57.584087 125.146751,56.522141 
	C123.245247,53.835098 121.207123,51.810772 120.256714,49.363945 
	C119.360672,47.057087 119.609993,44.305344 119.355461,41.749306 
	C121.937508,43.521175 123.082443,45.422398 124.474274,47.121357 
	C126.497520,49.591076 128.663391,51.948044 130.844757,54.281754 
	C131.538208,55.023632 132.474960,55.538109 133.300369,56.156643 
	C133.617828,55.183552 134.295013,54.171406 134.194305,53.243713 
	C133.545776,47.269924 132.727066,41.314610 131.749176,33.672695 
	C134.640594,36.651752 136.833359,38.910999 138.814957,40.952663 
	C141.111557,33.752911 147.819153,27.609087 147.553177,18.732716 
	C147.551666,18.681896 147.847336,18.622171 148.493683,19.138683 
M147.947754,153.469620 
	C154.304810,152.652527 160.824875,152.465408 166.981171,150.872437 
	C176.501968,148.408859 184.819382,143.371994 192.593872,136.314240 
	C186.049332,134.821625 184.072586,130.048706 182.060532,125.196098 
	C179.293655,118.523148 174.794968,115.656540 168.365524,116.787422 
	C172.606277,120.691238 176.338348,124.673195 173.161880,129.580048 
	C168.443329,125.301010 163.797607,121.088005 159.151886,116.875000 
	C160.854080,123.748367 156.206421,131.742264 164.429398,137.133209 
	C159.077866,137.259430 156.627213,135.491959 155.695297,131.143631 
	C155.140015,128.552765 153.763947,126.137810 152.574783,123.192825 
	C151.522110,129.276672 150.863800,134.237854 149.763138,139.098862 
	C148.774078,143.466949 147.299194,147.725037 145.288208,152.038879 
	C141.008606,147.709106 142.138184,142.697205 143.233597,137.540665 
	C144.343307,132.316895 145.882690,126.890862 141.287003,121.849113 
	C140.945709,131.575104 139.351517,134.328690 134.249924,135.421448 
	C134.249924,129.301071 134.249924,123.045845 134.249924,115.566536 
	C129.786667,121.651611 126.132561,126.633514 122.252541,131.923416 
	C119.805626,130.319916 119.136093,127.775856 121.783836,124.016899 
	C123.718864,121.269760 124.863007,117.965538 126.359688,114.909637 
	C124.633766,115.076538 123.458130,115.662323 123.111008,116.566261 
	C120.429520,123.549210 114.644753,125.872665 107.988388,127.236656 
	C106.116188,127.620300 104.178688,128.644760 102.724258,129.900223 
	C100.019150,132.235291 98.770073,134.933090 102.683449,137.503433 
	C107.403900,140.603867 111.856728,144.218842 116.856796,146.763397 
	C126.267883,151.552780 136.221970,154.662033 147.947754,153.469620 
M471.997894,104.519135 
	C477.050568,104.995468 482.103241,105.471794 485.935150,105.833038 
	C485.782013,102.979774 485.042603,100.643684 485.660431,98.750534 
	C488.463013,90.163132 488.600800,90.208099 497.649231,90.208084 
	C499.142395,90.208084 500.646362,90.094200 502.126221,90.234612 
	C504.383026,90.448746 507.339111,89.041313 508.213135,92.747581 
	C509.187927,96.881134 513.827698,100.679665 508.528046,105.909576 
	C516.844971,105.512566 524.363281,105.153687 532.812317,104.218323 
	C536.515076,104.660477 540.212219,105.417145 543.921753,105.483971 
	C553.831482,105.662498 563.746582,105.544769 573.939453,105.544769 
	C574.816223,100.095139 575.593323,95.265205 576.378723,90.383621 
	C573.690613,99.973053 564.118530,104.143661 551.002319,101.361618 
	C551.002319,87.783485 550.856812,74.157028 551.109009,60.537937 
	C551.168823,57.306858 552.561646,54.100464 553.289429,51.096893 
	C547.478394,51.096893 540.541626,51.096893 534.949646,51.096893 
	C536.139099,52.896656 538.850647,55.114197 538.916260,57.407440 
	C539.315735,71.370270 539.225220,85.351753 539.045227,99.323761 
	C538.989502,103.649162 536.171387,105.436119 531.119080,104.970589 
	C528.745422,102.614304 525.631470,100.648521 524.142273,97.825638 
	C520.280212,90.505089 517.143738,82.802498 513.698181,75.261299 
	C509.782257,66.690735 505.845276,58.129803 501.772339,49.248180 
	C494.401520,65.928764 487.208221,82.087624 480.134888,98.298820 
	C478.354980,102.378128 475.690735,104.976166 470.224060,105.172729 
	C466.288361,103.982529 464.945007,101.358070 465.010315,97.265778 
	C465.206848,84.941849 464.925201,72.609406 465.190735,60.288063 
	C465.257263,57.200417 466.678436,54.141964 467.443542,51.199085 
	C461.790894,51.199085 455.113800,51.199085 448.436676,51.199085 
	C452.424500,52.314472 453.323975,55.069683 453.291138,58.766537 
	C453.181580,71.092621 453.453949,83.425865 453.117584,95.743736 
	C453.025269,99.123718 451.315277,102.459534 450.426422,105.542374 
	C452.846802,105.542374 456.513458,105.617882 460.175598,105.521057 
	C463.812958,105.424889 467.445770,105.155365 471.997894,104.519135 
M167.158569,74.500069 
	C163.870529,71.165382 161.176437,66.441330 157.191162,64.737625 
	C140.347076,57.536793 125.744736,65.933037 122.433830,83.943024 
	C120.127930,96.486206 128.320068,108.897217 140.236206,110.913452 
	C156.357513,113.641220 168.861023,106.242523 170.265244,92.091438 
	C170.810043,86.601059 168.506088,80.828003 167.158569,74.500069 
M384.353210,50.987434 
	C384.109985,51.240822 383.866791,51.494205 383.623566,51.747581 
	C383.744232,51.813480 383.860657,51.927170 383.986206,51.938374 
	C388.537323,52.344524 388.929993,55.522667 388.916504,59.123291 
	C388.870941,71.285942 388.777618,83.450760 388.967224,95.610626 
	C389.030945,99.698418 388.666992,103.270859 384.801849,105.081703 
	C395.621918,105.081703 406.484894,105.663086 417.259491,104.935661 
	C430.965851,104.010300 440.366455,93.749664 440.973145,80.442642 
	C441.670868,65.138405 434.018677,53.989792 419.587372,52.076653 
	C408.277496,50.577324 396.677887,51.263470 384.353210,50.987434 
M343.936462,80.559380 
	C352.622528,88.839989 361.308563,97.120598 370.813812,106.182152 
	C370.971893,103.275528 371.119812,101.825912 371.118835,100.376396 
	C371.109741,86.723152 370.948303,73.068016 371.154144,59.418301 
	C371.195740,56.659008 372.599091,53.920254 373.346954,51.270210 
	C368.178375,51.270210 361.929169,51.270210 356.925629,51.270210 
	C357.894379,53.493382 359.497406,55.820774 359.860260,58.327679 
	C360.379639,61.915672 359.992767,65.634865 359.992798,69.298027 
	C359.992828,74.979927 359.992828,80.661835 359.992828,87.208931 
	C352.706787,80.287666 346.306793,74.216179 339.916016,68.135025 
	C333.520081,62.048927 327.133331,55.953156 320.860077,49.973644 
	C320.860077,65.632835 321.006989,80.769043 320.744751,95.898163 
	C320.687500,99.200043 319.168701,102.476593 318.409058,105.430328 
	C323.425446,105.430328 329.684296,105.430328 334.559174,105.430328 
	C333.745026,102.637276 332.325745,99.657372 332.101990,96.590248 
	C331.691162,90.958961 331.984833,85.276276 331.984833,79.615021 
	C331.984833,76.459808 331.984833,73.304596 331.984833,69.221535 
	C336.421387,73.427666 339.924377,76.748734 343.936462,80.559380 
M268.217865,78.396729 
	C268.218140,71.734177 268.021210,65.062737 268.321014,58.413689 
	C268.432373,55.943714 269.707611,53.526215 270.422607,51.181473 
	C264.747467,51.181473 258.239044,51.181473 251.730621,51.181473 
	C256.363739,51.657120 256.646515,54.855801 256.632996,58.439186 
	C256.596588,68.098969 256.459229,77.765808 256.762543,87.417259 
	C257.041595,96.296478 261.885468,102.586502 270.468689,104.892006 
	C274.891937,106.080124 279.696228,106.724594 284.244385,106.408081 
	C297.708038,105.471138 304.220276,98.203094 304.357697,84.703720 
	C304.447540,75.876755 304.221710,67.043617 304.479340,58.223240 
	C304.550476,55.788681 305.848083,53.389946 306.544922,51.099686 
	C303.098053,51.099686 298.976685,51.099686 296.313873,51.099686 
	C297.130280,53.437000 298.525452,55.916126 298.782135,58.507999 
	C299.206848,62.796604 298.984558,67.160011 298.877960,71.488029 
	C298.714386,78.128784 299.013092,84.856682 298.022339,91.381584 
	C296.860931,99.030495 291.210236,103.049721 283.542084,103.062553 
	C275.989716,103.075203 270.486511,98.827965 269.066772,91.278206 
	C268.335754,87.390831 268.472961,83.340195 268.217865,78.396729 
M111.269341,74.162704 
	C112.953461,74.016319 114.637581,73.869942 117.037422,73.661346 
	C111.316940,68.786003 106.417961,64.610802 101.413681,60.345856 
	C104.171837,57.971798 107.014046,59.229729 109.804352,61.927139 
	C112.129051,64.174446 114.610420,66.034691 117.988556,63.689293 
	C117.780708,63.180984 117.738708,62.702522 117.521889,62.602314 
	C109.570229,58.927399 104.962837,53.039234 104.962845,43.982910 
	C104.962845,43.220993 104.472679,42.383327 104.018730,41.709953 
	C101.757652,38.355972 98.493683,38.009880 96.013145,41.232048 
	C92.774773,45.438622 89.553169,49.741432 87.001427,54.375652 
	C81.929680,63.586422 79.331551,73.539406 79.101799,85.358711 
	C84.726410,79.643814 90.137657,80.935310 95.616013,83.097450 
	C101.100693,85.262115 106.096451,84.778458 110.843933,80.382271 
	C99.291870,78.856186 98.069771,78.122154 97.416969,73.494843 
	C101.646164,73.684044 106.025330,73.879951 111.269341,74.162704 
z"/>
<path fill="#F46045" opacity="1.000000" stroke="none" 
	d="
M167.329224,74.841888 
	C168.506088,80.828003 170.810043,86.601059 170.265244,92.091438 
	C168.861023,106.242523 156.357513,113.641220 140.236206,110.913452 
	C128.320068,108.897217 120.127930,96.486206 122.433830,83.943024 
	C125.744736,65.933037 140.347076,57.536793 157.191162,64.737625 
	C161.176437,66.441330 163.870529,71.165382 167.329224,74.841888 
z"/>
<path fill="#F6F6F7" opacity="1.000000" stroke="none" 
	d="
M384.780090,50.983044 
	C396.677887,51.263470 408.277496,50.577324 419.587372,52.076653 
	C434.018677,53.989792 441.670868,65.138405 440.973145,80.442642 
	C440.366455,93.749664 430.965851,104.010300 417.259491,104.935661 
	C406.484894,105.663086 395.621918,105.081703 384.801849,105.081703 
	C388.666992,103.270859 389.030945,99.698418 388.967224,95.610626 
	C388.777618,83.450760 388.870941,71.285942 388.916504,59.123291 
	C388.929993,55.522667 388.537323,52.344524 383.986206,51.938374 
	C383.860657,51.927170 383.744232,51.813480 383.623566,51.747589 
	C383.866791,51.494205 384.109985,51.240822 384.780090,50.983044 
M400.695465,67.508682 
	C400.695465,78.914925 400.695465,90.321167 400.695465,101.878166 
	C410.052704,102.381645 419.390930,103.629005 424.454956,93.998642 
	C429.971191,83.508247 430.083679,72.483704 424.160187,62.080872 
	C418.962616,52.952770 409.923157,53.924870 400.695465,54.452534 
	C400.695465,58.626198 400.695465,62.569256 400.695465,67.508682 
z"/>
<path fill="#FCFCFC" opacity="1.000000" stroke="none" 
	d="
M343.681915,80.314590 
	C339.924377,76.748734 336.421387,73.427666 331.984833,69.221535 
	C331.984833,73.304596 331.984833,76.459808 331.984833,79.615021 
	C331.984833,85.276276 331.691162,90.958961 332.101990,96.590248 
	C332.325745,99.657372 333.745026,102.637276 334.559174,105.430328 
	C329.684296,105.430328 323.425446,105.430328 318.409058,105.430328 
	C319.168701,102.476593 320.687500,99.200043 320.744751,95.898163 
	C321.006989,80.769043 320.860077,65.632835 320.860077,49.973644 
	C327.133331,55.953156 333.520081,62.048927 339.916016,68.135025 
	C346.306793,74.216179 352.706787,80.287666 359.992828,87.208931 
	C359.992828,80.661835 359.992828,74.979927 359.992798,69.298027 
	C359.992767,65.634865 360.379639,61.915672 359.860260,58.327679 
	C359.497406,55.820774 357.894379,53.493382 356.925629,51.270210 
	C361.929169,51.270210 368.178375,51.270210 373.346954,51.270210 
	C372.599091,53.920254 371.195740,56.659008 371.154144,59.418301 
	C370.948303,73.068016 371.109741,86.723152 371.118835,100.376396 
	C371.119812,101.825912 370.971893,103.275528 370.813812,106.182152 
	C361.308563,97.120598 352.622528,88.839989 343.681915,80.314590 
z"/>
<path fill="#FBFBFB" opacity="1.000000" stroke="none" 
	d="
M268.217834,78.880028 
	C268.472961,83.340195 268.335754,87.390831 269.066772,91.278206 
	C270.486511,98.827965 275.989716,103.075203 283.542084,103.062553 
	C291.210236,103.049721 296.860931,99.030495 298.022339,91.381584 
	C299.013092,84.856682 298.714386,78.128784 298.877960,71.488029 
	C298.984558,67.160011 299.206848,62.796604 298.782135,58.507999 
	C298.525452,55.916126 297.130280,53.437000 296.313873,51.099686 
	C298.976685,51.099686 303.098053,51.099686 306.544922,51.099686 
	C305.848083,53.389946 304.550476,55.788681 304.479340,58.223240 
	C304.221710,67.043617 304.447540,75.876755 304.357697,84.703720 
	C304.220276,98.203094 297.708038,105.471138 284.244385,106.408081 
	C279.696228,106.724594 274.891937,106.080124 270.468689,104.892006 
	C261.885468,102.586502 257.041595,96.296478 256.762543,87.417259 
	C256.459229,77.765808 256.596588,68.098969 256.632996,58.439186 
	C256.646515,54.855801 256.363739,51.657120 251.730621,51.181473 
	C258.239044,51.181473 264.747467,51.181473 270.422607,51.181473 
	C269.707611,53.526215 268.432373,55.943714 268.321014,58.413689 
	C268.021210,65.062737 268.218140,71.734177 268.217834,78.880028 
z"/>
<path fill="#F9F8F8" opacity="1.000000" stroke="none" 
	d="
M202.110809,90.262894 
	C202.394348,89.746834 202.677887,89.230774 203.334885,88.477211 
	C203.922195,89.105453 204.136063,89.971199 204.234848,91.254959 
	C203.657532,98.183327 206.048370,103.247673 211.979935,106.893585 
	C214.426926,107.839203 216.559280,108.857880 218.794006,109.192322 
	C226.241943,110.306961 232.647629,107.208481 234.613602,101.809540 
	C236.641510,96.240410 234.313324,90.752777 227.790741,86.262161 
	C223.571396,83.357262 219.202133,80.670097 214.737854,77.601860 
	C206.886398,71.737038 205.626968,67.616707 208.506439,57.462437 
	C212.475220,51.747425 218.024475,49.459305 224.845123,49.924099 
	C229.463547,50.238823 234.082214,50.550076 239.121140,50.891350 
	C238.795685,54.014347 238.493347,56.915627 238.146133,60.247547 
	C232.834854,53.715813 227.882233,51.548927 222.116516,54.008286 
	C219.726761,55.027630 217.152008,57.661900 216.512619,60.056129 
	C216.042603,61.816086 218.060486,65.063927 219.881516,66.455360 
	C225.011261,70.374969 230.653305,73.616928 236.016693,77.239609 
	C244.196594,82.764709 247.584076,90.220688 245.550781,97.907860 
	C243.360321,106.189178 235.869293,112.606216 226.548004,112.881882 
	C221.394547,113.034286 216.189499,111.442680 210.426270,110.275146 
	C202.796448,105.122482 200.995224,98.266701 202.110809,90.262894 
z"/>
<path fill="#F5F5F5" opacity="1.000000" stroke="none" 
	d="
M471.094879,105.215721 
	C475.690735,104.976166 478.354980,102.378128 480.134888,98.298820 
	C487.208221,82.087624 494.401520,65.928764 501.772339,49.248180 
	C505.845276,58.129803 509.782257,66.690735 513.698181,75.261299 
	C517.143738,82.802498 520.280212,90.505089 524.142273,97.825638 
	C525.631470,100.648521 528.745422,102.614304 531.541382,104.932770 
	C531.963684,104.894943 531.881592,104.794807 531.881592,104.794800 
	C524.363281,105.153687 516.844971,105.512566 508.528046,105.909576 
	C513.827698,100.679665 509.187927,96.881134 508.213135,92.747581 
	C507.339111,89.041313 504.383026,90.448746 502.126221,90.234612 
	C500.646362,90.094200 499.142395,90.208084 497.649231,90.208084 
	C488.600800,90.208099 488.463013,90.163132 485.660431,98.750534 
	C485.042603,100.643684 485.782013,102.979774 485.935150,105.833038 
	C482.103241,105.471794 477.050568,104.995468 471.522095,104.783813 
	C471.046326,105.048485 471.094879,105.215721 471.094879,105.215721 
M500.469818,73.094360 
	C499.850464,71.724144 499.231140,70.353935 498.262543,68.211014 
	C495.516998,74.865700 493.112427,80.693855 490.662292,86.632477 
	C496.064545,86.632477 500.740387,86.632477 505.745667,86.632477 
	C503.995728,82.077797 502.402039,77.929832 500.469818,73.094360 
z"/>
<path fill="#F05F44" opacity="1.000000" stroke="none" 
	d="
M146.038605,152.031647 
	C147.299194,147.725037 148.774078,143.466949 149.763138,139.098862 
	C150.863800,134.237854 151.522110,129.276672 152.574783,123.192825 
	C153.763947,126.137810 155.140015,128.552765 155.695297,131.143631 
	C156.627213,135.491959 159.077866,137.259430 164.429398,137.133209 
	C156.206421,131.742264 160.854080,123.748367 159.151886,116.875000 
	C163.797607,121.088005 168.443329,125.301010 173.161880,129.580048 
	C176.338348,124.673195 172.606277,120.691238 168.365524,116.787422 
	C174.794968,115.656540 179.293655,118.523148 182.060532,125.196098 
	C184.072586,130.048706 186.049332,134.821625 192.593872,136.314240 
	C184.819382,143.371994 176.501968,148.408859 166.981171,150.872437 
	C160.824875,152.465408 154.304810,152.652527 147.489059,153.489716 
	C147.030365,153.509827 147.019760,153.563782 147.157257,153.147766 
	C146.851410,152.476318 146.408035,152.220886 145.983856,151.981247 
	C146.003021,151.997025 146.038605,152.031647 146.038605,152.031647 
z"/>
<path fill="#F05F44" opacity="1.000000" stroke="none" 
	d="
M110.836914,74.119286 
	C106.025330,73.879951 101.646164,73.684044 97.416969,73.494843 
	C98.069771,78.122154 99.291870,78.856186 110.843933,80.382271 
	C106.096451,84.778458 101.100693,85.262115 95.616013,83.097450 
	C90.137657,80.935310 84.726410,79.643814 79.101799,85.358711 
	C79.331551,73.539406 81.929680,63.586422 87.001427,54.375652 
	C89.553169,49.741432 92.774773,45.438622 96.013145,41.232048 
	C98.493683,38.009880 101.757652,38.355972 104.018730,41.709953 
	C104.472679,42.383327 104.962845,43.220993 104.962845,43.982910 
	C104.962837,53.039234 109.570229,58.927399 117.521889,62.602314 
	C117.738708,62.702522 117.780708,63.180984 117.988556,63.689293 
	C114.610420,66.034691 112.129051,64.174446 109.804352,61.927139 
	C107.014046,59.229729 104.171837,57.971798 101.413681,60.345856 
	C106.417961,64.610802 111.316940,68.786003 117.037422,73.661346 
	C114.637581,73.869942 112.953461,74.016319 110.836914,74.119286 
z"/>
<path fill="#F05F44" opacity="1.000000" stroke="none" 
	d="
M147.019760,153.563782 
	C147.019760,153.563782 147.030365,153.509827 147.036713,153.482666 
	C136.221970,154.662033 126.267883,151.552780 116.856796,146.763397 
	C111.856728,144.218842 107.403900,140.603867 102.683449,137.503433 
	C98.770073,134.933090 100.019150,132.235291 102.724258,129.900223 
	C104.178688,128.644760 106.116188,127.620300 107.988388,127.236656 
	C114.644753,125.872665 120.429520,123.549210 123.111008,116.566261 
	C123.458130,115.662323 124.633766,115.076538 126.359688,114.909637 
	C124.863007,117.965538 123.718864,121.269760 121.783836,124.016899 
	C119.136093,127.775856 119.805626,130.319916 122.252541,131.923416 
	C126.132561,126.633514 129.786667,121.651611 134.249924,115.566536 
	C134.249924,123.045845 134.249924,129.301071 134.249924,135.421448 
	C139.351517,134.328690 140.945709,131.575104 141.287003,121.849113 
	C145.882690,126.890862 144.343307,132.316895 143.233597,137.540665 
	C142.138184,142.697205 141.008606,147.709106 145.663406,152.035263 
	C146.038605,152.031647 146.003021,151.997025 145.984253,152.329025 
	C146.316925,152.961945 146.668335,153.262863 147.019760,153.563782 
z"/>
<path fill="#F05F44" opacity="1.000000" stroke="none" 
	d="
M148.004227,18.566605 
	C147.847336,18.622171 147.551666,18.681896 147.553177,18.732716 
	C147.819153,27.609087 141.111557,33.752911 138.814957,40.952663 
	C136.833359,38.910999 134.640594,36.651752 131.749176,33.672695 
	C132.727066,41.314610 133.545776,47.269924 134.194305,53.243713 
	C134.295013,54.171406 133.617828,55.183552 133.300369,56.156643 
	C132.474960,55.538109 131.538208,55.023632 130.844757,54.281754 
	C128.663391,51.948044 126.497520,49.591076 124.474274,47.121357 
	C123.082443,45.422398 121.937508,43.521175 119.355461,41.749306 
	C119.609993,44.305344 119.360672,47.057087 120.256714,49.363945 
	C121.207123,51.810772 123.245247,53.835098 125.146751,56.522141 
	C120.051323,57.584087 117.918793,54.679901 115.889381,51.975723 
	C113.999565,49.457554 112.382957,46.717598 110.815170,43.978489 
	C108.522980,39.973774 105.617813,37.087688 99.209213,37.944130 
	C105.360588,31.701170 111.439278,27.601704 118.191887,24.480553 
	C127.341530,20.251459 136.827438,17.484880 147.540161,18.519770 
	C148.000198,18.509710 148.004227,18.566605 148.004227,18.566605 
z"/>
<path fill="#F05F44" opacity="1.000000" stroke="none" 
	d="
M148.248962,18.852644 
	C148.004227,18.566605 148.000198,18.509710 147.997543,18.481361 
	C165.011978,17.840059 179.388672,24.256540 191.945374,35.231808 
	C192.792068,35.971867 193.111023,38.796780 192.447281,39.511597 
	C190.287003,41.838020 187.795853,44.837540 184.997208,45.395050 
	C178.335861,46.722034 173.777267,50.006100 170.870773,55.962318 
	C170.605164,56.506622 170.026917,56.898376 169.149002,57.836174 
	C168.726974,50.832027 178.464310,45.727623 171.927277,38.982368 
	C168.267960,43.786640 164.499710,48.733917 160.731461,53.681194 
	C157.791733,45.764626 158.885712,39.205257 165.106552,33.013832 
	C156.800354,34.909836 152.470947,40.797070 150.689560,49.821198 
	C150.141159,47.747677 148.971710,45.611172 149.174271,43.613811 
	C149.589890,39.515747 150.705124,35.484383 151.598312,31.440134 
	C152.622269,26.803894 152.479477,22.495064 148.248962,18.852644 
z"/>
<path fill="#F15F44" opacity="1.000000" stroke="none" 
	d="
M101.973465,94.873444 
	C98.708725,96.381584 96.010040,98.314705 95.943245,101.441666 
	C102.686066,100.571747 109.224052,99.728249 115.762047,98.884758 
	C116.053886,99.379539 116.345726,99.874321 116.637566,100.369102 
	C111.297699,103.294205 110.032928,110.805275 101.879745,111.389008 
	C109.104080,117.312706 113.339676,111.482536 118.199783,108.106110 
	C116.476151,114.673424 111.201279,117.839233 106.150139,120.933289 
	C101.688538,123.666229 97.814796,126.403313 98.929321,133.934799 
	C85.603287,119.692299 79.525406,104.378151 79.071129,86.578438 
	C84.264366,84.749672 88.467957,85.650467 92.578552,88.559357 
	C95.228271,90.434448 98.297966,91.716057 101.553024,93.594147 
	C101.962418,94.239906 101.978035,94.556175 101.973465,94.873444 
z"/>
<path fill="#F05F44" opacity="1.000000" stroke="none" 
	d="
M208.374756,57.081818 
	C205.626968,67.616707 206.886398,71.737038 214.693604,78.046570 
	C215.080734,86.073196 214.961853,86.185631 207.562256,85.944695 
	C206.410141,85.907173 205.255630,85.942245 204.102234,85.943748 
	C199.202133,79.384827 192.374741,79.677933 185.186539,80.799782 
	C189.428421,77.697418 193.525406,74.701027 197.622406,71.704628 
	C197.390884,71.469261 197.159378,71.233894 196.927856,70.998528 
	C190.786911,72.159904 184.645966,73.321281 178.505020,74.482658 
	C178.248993,73.996346 177.992950,73.510033 177.736923,73.023720 
	C182.266632,67.917885 185.103729,60.852112 194.056335,60.762779 
	C189.170074,56.667038 188.702774,56.775925 176.314682,64.545181 
	C175.925476,64.270920 175.536270,63.996651 175.147049,63.722385 
	C177.067642,61.096676 178.672882,58.137920 180.996475,55.937820 
	C183.376404,53.684361 186.508820,52.243149 189.223358,50.321377 
	C193.047607,47.613960 196.166183,44.454395 194.734131,37.697212 
	C201.086945,43.902981 205.100983,49.979713 208.374756,57.081818 
z"/>
<path fill="#F4F4F5" opacity="1.000000" stroke="none" 
	d="
M532.346924,104.506561 
	C531.881592,104.794807 531.963684,104.894943 531.943970,104.914108 
	C536.171387,105.436119 538.989502,103.649162 539.045227,99.323761 
	C539.225220,85.351753 539.315735,71.370270 538.916260,57.407440 
	C538.850647,55.114197 536.139099,52.896656 534.949646,51.096893 
	C540.541626,51.096893 547.478394,51.096893 553.289429,51.096893 
	C552.561646,54.100464 551.168823,57.306858 551.109009,60.537937 
	C550.856812,74.157028 551.002319,87.783485 551.002319,101.361618 
	C564.118530,104.143661 573.690613,99.973053 576.378723,90.383621 
	C575.593323,95.265205 574.816223,100.095139 573.939453,105.544769 
	C563.746582,105.544769 553.831482,105.662498 543.921753,105.483971 
	C540.212219,105.417145 536.515076,104.660477 532.346924,104.506561 
z"/>
<path fill="#F06045" opacity="1.000000" stroke="none" 
	d="
M201.710541,90.188248 
	C200.995224,98.266701 202.796448,105.122482 210.063553,110.149628 
	C206.117279,117.312630 202.218857,124.419960 197.687302,131.097641 
	C194.970779,135.100693 190.583618,134.036972 188.859085,129.333694 
	C188.062286,127.160576 187.617401,124.860229 186.972153,122.629364 
	C185.337692,116.978630 183.247040,111.645706 175.872406,109.042442 
	C182.645401,107.621567 186.889587,115.159637 192.027924,111.634003 
	C187.288300,107.827866 182.529388,104.006233 177.132431,99.672234 
	C184.229401,96.433601 190.993103,99.307594 197.580673,99.134323 
	C196.814148,95.193855 196.814148,95.193855 183.308258,92.173447 
	C185.105148,88.972137 187.846359,87.727654 191.087219,88.078384 
	C194.528030,88.450745 197.905273,89.410400 201.710541,90.188248 
z"/>
<path fill="#F5F5F5" opacity="1.000000" stroke="none" 
	d="
M470.659485,105.194229 
	C471.094879,105.215721 471.046326,105.048485 471.063446,105.005173 
	C467.445770,105.155365 463.812958,105.424889 460.175598,105.521057 
	C456.513458,105.617882 452.846802,105.542374 450.426422,105.542374 
	C451.315277,102.459534 453.025269,99.123718 453.117584,95.743736 
	C453.453949,83.425865 453.181580,71.092621 453.291138,58.766537 
	C453.323975,55.069683 452.424500,52.314472 448.436676,51.199085 
	C455.113800,51.199085 461.790894,51.199085 467.443542,51.199085 
	C466.678436,54.141964 465.257263,57.200417 465.190735,60.288063 
	C464.925201,72.609406 465.206848,84.941849 465.010315,97.265778 
	C464.945007,101.358070 466.288361,103.982529 470.659485,105.194229 
z"/>
<path fill="#1C1E24" opacity="1.000000" stroke="none" 
	d="
M203.853653,86.141739 
	C205.255630,85.942245 206.410141,85.907173 207.562256,85.944695 
	C214.961853,86.185631 215.080734,86.073196 214.855804,78.330070 
	C219.202133,80.670097 223.571396,83.357262 227.790741,86.262161 
	C234.313324,90.752777 236.641510,96.240410 234.613602,101.809540 
	C232.647629,107.208481 226.241943,110.306961 218.794006,109.192322 
	C216.559280,108.857880 214.426926,107.839203 212.125793,106.475922 
	C213.176376,99.887077 214.348862,93.956299 215.428696,88.494102 
	C211.127274,89.403725 207.738602,90.120331 204.349930,90.836945 
	C204.136063,89.971199 203.922195,89.105453 203.375031,88.178513 
	C203.229523,87.524796 203.417297,86.932266 203.853653,86.141739 
z"/>
<path fill="#D0543E" opacity="1.000000" stroke="none" 
	d="
M102.380508,94.913322 
	C101.978035,94.556175 101.962418,94.239906 101.924934,93.687088 
	C105.416779,92.271622 108.910301,91.093697 112.403831,89.915764 
	C112.619438,90.592323 112.835045,91.268883 113.050659,91.945450 
	C109.629623,92.948029 106.208588,93.950615 102.380508,94.913322 
z"/>
<path fill="#191C23" opacity="1.000000" stroke="none" 
	d="
M400.695465,67.010498 
	C400.695465,62.569256 400.695465,58.626198 400.695465,54.452534 
	C409.923157,53.924870 418.962616,52.952770 424.160187,62.080872 
	C430.083679,72.483704 429.971191,83.508247 424.454956,93.998642 
	C419.390930,103.629005 410.052704,102.381645 400.695465,101.878166 
	C400.695465,90.321167 400.695465,78.914925 400.695465,67.010498 
z"/>
<path fill="#F16146" opacity="1.000000" stroke="none" 
	d="
M204.234848,91.254951 
	C207.738602,90.120331 211.127274,89.403725 215.428696,88.494102 
	C214.348862,93.956299 213.176376,99.887077 211.858047,106.235519 
	C206.048370,103.247673 203.657532,98.183327 204.234848,91.254951 
z"/>
<path fill="#20232A" opacity="1.000000" stroke="none" 
	d="
M500.639099,73.438110 
	C502.402039,77.929832 503.995728,82.077797 505.745667,86.632477 
	C500.740387,86.632477 496.064545,86.632477 490.662292,86.632477 
	C493.112427,80.693855 495.516998,74.865700 498.262543,68.211014 
	C499.231140,70.353935 499.850464,71.724144 500.639099,73.438110 
z"/>
<path fill="#181B21" opacity="1.000000" stroke="none" 
	d="
M147.157257,153.147766 
	C146.668335,153.262863 146.316925,152.961945 145.965088,152.313248 
	C146.408035,152.220886 146.851410,152.476318 147.157257,153.147766 
z"/>
</svg>